<svg xmlns="http://www.w3.org/2000/svg" xmlns:xlink="http://www.w3.org/1999/xlink" viewBox="0 0 437.55 277.81"><defs><style>.cls-1{isolation:isolate;}.cls-2{fill:url(#New_Gradient_Swatch_6);}.cls-3{fill:url(#New_Gradient_Swatch_6-2);}.cls-4{fill:url(#New_Gradient_Swatch_6-3);}.cls-5{fill:url(#New_Gradient_Swatch_6-4);}.cls-6{fill:url(#New_Gradient_Swatch_6-5);}.cls-7{fill:url(#New_Gradient_Swatch_6-6);}.cls-8{fill:url(#New_Gradient_Swatch_6-7);}.cls-9{fill:url(#New_Gradient_Swatch_6-8);}.cls-10{fill:url(#New_Gradient_Swatch_6-9);}.cls-11,.cls-51,.cls-55,.cls-57,.cls-58,.cls-59,.cls-60,.cls-61,.cls-62,.cls-63,.cls-64,.cls-65{mix-blend-mode:screen;}.cls-12{fill:url(#New_Gradient_Swatch_6-10);}.cls-13{fill:url(#New_Gradient_Swatch_6-11);}.cls-14{fill:url(#New_Gradient_Swatch_6-12);}.cls-15{fill:url(#New_Gradient_Swatch_6-13);}.cls-16{fill:url(#New_Gradient_Swatch_6-14);}.cls-17{fill:url(#New_Gradient_Swatch_6-15);}.cls-18{fill:url(#New_Gradient_Swatch_6-16);}.cls-19{fill:url(#New_Gradient_Swatch_6-17);}.cls-20{fill:url(#New_Gradient_Swatch_6-18);}.cls-21{fill:url(#New_Gradient_Swatch_6-19);}.cls-22{fill:url(#New_Gradient_Swatch_6-20);}.cls-23{fill:url(#New_Gradient_Swatch_6-21);}.cls-24{fill:url(#New_Gradient_Swatch_6-22);}.cls-25{fill:url(#New_Gradient_Swatch_6-23);}.cls-26{fill:url(#New_Gradient_Swatch_6-24);}.cls-27{fill:url(#New_Gradient_Swatch_6-25);}.cls-28{fill:url(#New_Gradient_Swatch_6-26);}.cls-29{fill:url(#New_Gradient_Swatch_6-27);}.cls-30{fill:url(#New_Gradient_Swatch_6-28);}.cls-31{fill:url(#New_Gradient_Swatch_6-29);}.cls-32{fill:url(#New_Gradient_Swatch_6-30);}.cls-33{fill:url(#New_Gradient_Swatch_6-31);}.cls-34{fill:url(#New_Gradient_Swatch_6-32);}.cls-35{fill:url(#New_Gradient_Swatch_6-33);}.cls-36{fill:url(#New_Gradient_Swatch_6-34);}.cls-37{fill:url(#New_Gradient_Swatch_6-35);}.cls-38{fill:url(#New_Gradient_Swatch_6-36);}.cls-39{fill:url(#New_Gradient_Swatch_6-37);}.cls-40{fill:url(#New_Gradient_Swatch_6-38);}.cls-41{fill:url(#New_Gradient_Swatch_6-39);}.cls-42{fill:url(#New_Gradient_Swatch_6-40);}.cls-43{fill:url(#New_Gradient_Swatch_6-41);}.cls-44{fill:url(#New_Gradient_Swatch_6-42);}.cls-45{fill:url(#New_Gradient_Swatch_6-43);}.cls-46{fill:url(#New_Gradient_Swatch_6-44);}.cls-47{fill:url(#New_Gradient_Swatch_6-45);}.cls-48{fill:url(#New_Gradient_Swatch_6-46);}.cls-49{fill:url(#New_Gradient_Swatch_6-47);}.cls-50{fill:url(#New_Gradient_Swatch_6-48);}.cls-51{opacity:0.2;}.cls-52{fill:url(#New_Gradient_Swatch_6-49);}.cls-53{fill:url(#New_Gradient_Swatch_6-50);}.cls-54{fill:url(#New_Gradient_Swatch_6-51);}.cls-55{opacity:0.5;fill:url(#New_Gradient_Swatch_6-52);}.cls-56{fill:url(#New_Gradient_Swatch_6-53);}.cls-57{fill:url(#New_Gradient_Swatch_6-54);}.cls-58{fill:url(#New_Gradient_Swatch_6-55);}.cls-59{fill:url(#New_Gradient_Swatch_6-56);}.cls-60{fill:url(#New_Gradient_Swatch_6-57);}.cls-61{fill:url(#New_Gradient_Swatch_6-58);}.cls-62{fill:url(#New_Gradient_Swatch_6-59);}.cls-63{fill:url(#New_Gradient_Swatch_6-60);}.cls-64{fill:url(#New_Gradient_Swatch_6-61);}.cls-65{fill:url(#New_Gradient_Swatch_6-62);}.cls-66{fill:#fff;}.cls-67{mix-blend-mode:overlay;}</style><linearGradient id="New_Gradient_Swatch_6" x1="146.28" y1="-2.55" x2="336.28" y2="187.45" gradientUnits="userSpaceOnUse"><stop offset="0" stop-color="#c0c8d4"/><stop offset="0.95" stop-color="#fcfdfd"/><stop offset="1" stop-color="#fff"/></linearGradient><linearGradient id="New_Gradient_Swatch_6-2" x1="109.87" y1="40.18" x2="299.88" y2="230.19" gradientTransform="translate(246.93 -117.3) rotate(59.93)" xlink:href="#New_Gradient_Swatch_6"/><linearGradient id="New_Gradient_Swatch_6-3" x1="171.08" y1="-21.02" x2="361.08" y2="168.99" xlink:href="#New_Gradient_Swatch_6"/><linearGradient id="New_Gradient_Swatch_6-4" x1="136.65" y1="7.07" x2="326.65" y2="197.08" xlink:href="#New_Gradient_Swatch_6"/><linearGradient id="New_Gradient_Swatch_6-5" x1="126.39" y1="17.33" x2="316.4" y2="207.33" xlink:href="#New_Gradient_Swatch_6"/><linearGradient id="New_Gradient_Swatch_6-6" x1="183.23" y1="-39.51" x2="373.23" y2="150.5" xlink:href="#New_Gradient_Swatch_6"/><linearGradient id="New_Gradient_Swatch_6-7" x1="214.51" y1="-64.45" x2="404.51" y2="125.55" gradientTransform="translate(198.53 -257.4) rotate(59.99)" xlink:href="#New_Gradient_Swatch_6"/><linearGradient id="New_Gradient_Swatch_6-8" x1="205.02" y1="-61.3" x2="395.03" y2="128.7" xlink:href="#New_Gradient_Swatch_6"/><linearGradient id="New_Gradient_Swatch_6-9" x1="62.14" y1="24.14" x2="356.82" y2="318.82" xlink:href="#New_Gradient_Swatch_6"/><linearGradient id="New_Gradient_Swatch_6-10" x1="315.44" y1="113.41" x2="98.87" y2="113.41" xlink:href="#New_Gradient_Swatch_6"/><linearGradient id="New_Gradient_Swatch_6-11" x1="315.42" y1="113.41" x2="98.88" y2="113.41" xlink:href="#New_Gradient_Swatch_6"/><linearGradient id="New_Gradient_Swatch_6-12" x1="315.44" y1="169.54" x2="98.87" y2="169.54" xlink:href="#New_Gradient_Swatch_6"/><linearGradient id="New_Gradient_Swatch_6-13" x1="315.45" y1="85.35" x2="98.84" y2="85.35" xlink:href="#New_Gradient_Swatch_6"/><linearGradient id="New_Gradient_Swatch_6-14" x1="315.45" y1="141.47" x2="98.84" y2="141.47" xlink:href="#New_Gradient_Swatch_6"/><linearGradient id="New_Gradient_Swatch_6-15" x1="315.43" y1="85.35" x2="98.9" y2="85.35" xlink:href="#New_Gradient_Swatch_6"/><linearGradient id="New_Gradient_Swatch_6-16" x1="315.43" y1="29.22" x2="98.9" y2="29.22" xlink:href="#New_Gradient_Swatch_6"/><linearGradient id="New_Gradient_Swatch_6-17" x1="315.45" y1="29.22" x2="98.85" y2="29.22" xlink:href="#New_Gradient_Swatch_6"/><linearGradient id="New_Gradient_Swatch_6-18" x1="331.94" y1="85.35" x2="328.7" y2="85.35" xlink:href="#New_Gradient_Swatch_6"/><linearGradient id="New_Gradient_Swatch_6-19" x1="387.31" y1="85.35" x2="384.07" y2="85.35" xlink:href="#New_Gradient_Swatch_6"/><linearGradient id="New_Gradient_Swatch_6-20" x1="315.42" y1="85.35" x2="98.88" y2="85.35" xlink:href="#New_Gradient_Swatch_6"/><linearGradient id="New_Gradient_Swatch_6-21" x1="315.44" y1="57.29" x2="98.87" y2="57.29" xlink:href="#New_Gradient_Swatch_6"/><linearGradient id="New_Gradient_Swatch_6-22" x1="315.42" y1="57.29" x2="98.88" y2="57.29" xlink:href="#New_Gradient_Swatch_6"/><linearGradient id="New_Gradient_Swatch_6-23" x1="315.44" y1="57.29" x2="98.89" y2="57.29" xlink:href="#New_Gradient_Swatch_6"/><linearGradient id="New_Gradient_Swatch_6-24" x1="331.94" y1="29.22" x2="328.7" y2="29.22" xlink:href="#New_Gradient_Swatch_6"/><linearGradient id="New_Gradient_Swatch_6-25" x1="315.43" y1="57.29" x2="98.89" y2="57.29" xlink:href="#New_Gradient_Swatch_6"/><linearGradient id="New_Gradient_Swatch_6-26" x1="315.43" y1="141.47" x2="98.9" y2="141.47" xlink:href="#New_Gradient_Swatch_6"/><linearGradient id="New_Gradient_Swatch_6-27" x1="315.43" y1="113.41" x2="98.89" y2="113.41" xlink:href="#New_Gradient_Swatch_6"/><linearGradient id="New_Gradient_Swatch_6-28" x1="315.44" y1="113.41" x2="98.89" y2="113.41" xlink:href="#New_Gradient_Swatch_6"/><linearGradient id="New_Gradient_Swatch_6-29" x1="315.42" y1="29.22" x2="98.88" y2="29.22" xlink:href="#New_Gradient_Swatch_6"/><linearGradient id="New_Gradient_Swatch_6-30" x1="315.42" y1="1.62" x2="98.88" y2="1.62" xlink:href="#New_Gradient_Swatch_6"/><linearGradient id="New_Gradient_Swatch_6-31" x1="379.23" y1="149.43" x2="427.73" y2="197.93" xlink:href="#New_Gradient_Swatch_6"/><linearGradient id="New_Gradient_Swatch_6-32" x1="416.3" y1="200.33" x2="181.93" y2="200.33" xlink:href="#New_Gradient_Swatch_6"/><linearGradient id="New_Gradient_Swatch_6-33" x1="422.63" y1="222.24" x2="188.26" y2="222.24" xlink:href="#New_Gradient_Swatch_6"/><linearGradient id="New_Gradient_Swatch_6-34" x1="422.63" y1="255.31" x2="188.26" y2="255.31" gradientTransform="translate(174.65 -141.21) rotate(30)" xlink:href="#New_Gradient_Swatch_6"/><linearGradient id="New_Gradient_Swatch_6-35" x1="416.61" y1="244.16" x2="179.51" y2="244.16" xlink:href="#New_Gradient_Swatch_6"/><linearGradient id="New_Gradient_Swatch_6-36" x1="422.95" y1="211.35" x2="185.82" y2="211.35" gradientTransform="translate(377.07 -231.09) rotate(59.95)" xlink:href="#New_Gradient_Swatch_6"/><linearGradient id="New_Gradient_Swatch_6-37" x1="406.18" y1="244.28" x2="258.61" y2="244.28" xlink:href="#New_Gradient_Swatch_6"/><linearGradient id="New_Gradient_Swatch_6-38" x1="224.74" y1="172.18" x2="277.1" y2="172.18" xlink:href="#New_Gradient_Swatch_6"/><linearGradient id="New_Gradient_Swatch_6-39" x1="266.15" y1="200.14" x2="487.16" y2="200.14" xlink:href="#New_Gradient_Swatch_6"/><linearGradient id="New_Gradient_Swatch_6-40" x1="279.05" y1="178.23" x2="500" y2="178.23" xlink:href="#New_Gradient_Swatch_6"/><linearGradient id="New_Gradient_Swatch_6-41" x1="266.14" y1="200.14" x2="487.16" y2="200.14" xlink:href="#New_Gradient_Swatch_6"/><linearGradient id="New_Gradient_Swatch_6-42" x1="266.17" y1="200.14" x2="487.12" y2="200.14" xlink:href="#New_Gradient_Swatch_6"/><linearGradient id="New_Gradient_Swatch_6-43" x1="266.14" y1="266.93" x2="487.15" y2="266.93" xlink:href="#New_Gradient_Swatch_6"/><linearGradient id="New_Gradient_Swatch_6-44" x1="266.16" y1="244.28" x2="487.11" y2="244.28" xlink:href="#New_Gradient_Swatch_6"/><linearGradient id="New_Gradient_Swatch_6-45" x1="250.07" y1="244.28" x2="471.02" y2="244.28" xlink:href="#New_Gradient_Swatch_6"/><linearGradient id="New_Gradient_Swatch_6-46" x1="266.17" y1="244.28" x2="487.12" y2="244.28" xlink:href="#New_Gradient_Swatch_6"/><linearGradient id="New_Gradient_Swatch_6-47" x1="271.22" y1="146.44" x2="322.04" y2="146.44" xlink:href="#New_Gradient_Swatch_6"/><linearGradient id="New_Gradient_Swatch_6-48" x1="174.01" y1="141.06" x2="224.83" y2="141.06" xlink:href="#New_Gradient_Swatch_6"/><linearGradient id="New_Gradient_Swatch_6-49" x1="265.15" y1="29.22" x2="330.89" y2="29.22" xlink:href="#New_Gradient_Swatch_6"/><linearGradient id="New_Gradient_Swatch_6-50" x1="165.62" y1="196.78" x2="231.36" y2="196.78" xlink:href="#New_Gradient_Swatch_6"/><linearGradient id="New_Gradient_Swatch_6-51" x1="359.84" y1="28.68" x2="425.59" y2="28.68" xlink:href="#New_Gradient_Swatch_6"/><linearGradient id="New_Gradient_Swatch_6-52" x1="314.59" y1="177.56" x2="395.6" y2="177.56" xlink:href="#New_Gradient_Swatch_6"/><linearGradient id="New_Gradient_Swatch_6-53" x1="217.77" y1="249.35" x2="283.52" y2="249.35" xlink:href="#New_Gradient_Swatch_6"/><linearGradient id="New_Gradient_Swatch_6-54" x1="211.14" y1="215.42" x2="18.02" y2="22.31" gradientTransform="translate(-35.83 33.83) rotate(0.28)" xlink:href="#New_Gradient_Swatch_6"/><linearGradient id="New_Gradient_Swatch_6-55" x1="211.14" y1="215.42" x2="18.02" y2="22.31" gradientTransform="translate(-35.83 33.83) rotate(0.28)" xlink:href="#New_Gradient_Swatch_6"/><linearGradient id="New_Gradient_Swatch_6-56" x1="3437.97" y1="-6942.56" x2="3244.85" y2="-7135.68" gradientTransform="translate(-7216.13 2701.75) rotate(45.28)" xlink:href="#New_Gradient_Swatch_6"/><linearGradient id="New_Gradient_Swatch_6-57" x1="252.46" y1="160.89" x2="78.04" y2="-13.53" gradientTransform="translate(267.67 -56.78) rotate(90)" xlink:href="#New_Gradient_Swatch_6"/><linearGradient id="New_Gradient_Swatch_6-58" x1="261.53" y1="192.15" x2="27.5" y2="-41.89" gradientTransform="translate(288.81 -34.62) rotate(89.99)" xlink:href="#New_Gradient_Swatch_6"/><linearGradient id="New_Gradient_Swatch_6-59" x1="1819.61" y1="231.95" x2="1550" y2="-37.66" gradientTransform="matrix(0, 0.82, -1, 0, 291.23, -1238.41)" xlink:href="#New_Gradient_Swatch_6"/><linearGradient id="New_Gradient_Swatch_6-60" x1="215.99" y1="110.97" x2="195.84" y2="90.82" gradientTransform="translate(-35.83 33.83) rotate(0.28)" xlink:href="#New_Gradient_Swatch_6"/><linearGradient id="New_Gradient_Swatch_6-61" x1="228.31" y1="132.07" x2="208.16" y2="111.92" gradientTransform="translate(-35.83 33.83) rotate(0.28)" xlink:href="#New_Gradient_Swatch_6"/><linearGradient id="New_Gradient_Swatch_6-62" x1="207.32" y1="167.73" x2="187.16" y2="147.57" gradientTransform="translate(-35.83 33.83) rotate(0.28)" xlink:href="#New_Gradient_Swatch_6"/></defs><g class="cls-1"><g id="Layer_2" data-name="Layer 2"><g id="Object"><polygon class="cls-2" points="210.76 57.78 178.06 57.78 161.58 29.22 177.92 0.91 178.78 1.41 162.72 29.22 178.64 56.79 210.76 56.79 210.76 57.78"/><rect class="cls-3" x="208.99" y="155.01" width="32.4" height="1" transform="translate(-28.56 272.46) rotate(-59.93)"/><path class="cls-4" d="M265.86,85.85h-33L216.4,57.29l16.49-28.56h33l16.49,28.56Zm-32.4-1h31.83L281.2,57.29,265.29,29.72H233.46L217.55,57.29Z" transform="translate(-6.33)"/><polygon class="cls-5" points="259.53 141.97 226.55 141.97 210.21 113.66 211.07 113.16 227.13 140.97 258.96 140.97 274.87 113.41 258.81 85.6 259.68 85.1 276.02 113.41 259.53 141.97"/><polygon class="cls-6" points="211.04 113.91 178.06 113.91 161.58 85.35 178.06 56.79 210.76 56.79 210.76 57.78 178.64 57.78 162.72 85.35 178.64 112.91 210.47 112.91 226.53 85.1 227.39 85.6 211.04 113.91"/><polygon class="cls-7" points="308.21 113.66 307.35 113.16 323.41 85.35 307.49 57.78 275.38 57.78 275.38 56.79 308.07 56.79 324.56 85.35 308.21 113.66"/><rect class="cls-8" x="306.01" y="42.76" width="32.4" height="1" transform="translate(117.28 300.65) rotate(-59.99)"/><rect class="cls-9" x="323.98" y="84.85" width="55.37" height="1"/><rect class="cls-10" x="84.55" y="84.85" width="77.61" height="1"/><g class="cls-11"><path class="cls-12" d="M218.71,113.41a1.62,1.62,0,1,1-1.62-1.62A1.63,1.63,0,0,1,218.71,113.41Z" transform="translate(-6.33)"/><path class="cls-13" d="M186.3,113.41a1.62,1.62,0,1,1-1.61-1.62A1.62,1.62,0,0,1,186.3,113.41Z" transform="translate(-6.33)"/><path class="cls-14" d="M218.71,169.54a1.62,1.62,0,1,1-1.62-1.62A1.62,1.62,0,0,1,218.71,169.54Z" transform="translate(-6.33)"/><path class="cls-15" d="M234.91,85.35a1.62,1.62,0,1,1-1.62-1.62A1.62,1.62,0,0,1,234.91,85.35Z" transform="translate(-6.33)"/><path class="cls-16" d="M234.91,141.47a1.62,1.62,0,1,1-1.62-1.62A1.61,1.61,0,0,1,234.91,141.47Z" transform="translate(-6.33)"/><path class="cls-17" d="M267.46,85.35a1.62,1.62,0,1,1-1.62-1.62A1.63,1.63,0,0,1,267.46,85.35Z" transform="translate(-6.33)"/><path class="cls-18" d="M267.46,29.22a1.62,1.62,0,1,1-1.62-1.62A1.62,1.62,0,0,1,267.46,29.22Z" transform="translate(-6.33)"/><path class="cls-19" d="M234.79,29.22a1.62,1.62,0,1,1-1.62-1.62A1.61,1.61,0,0,1,234.79,29.22Z" transform="translate(-6.33)"/><path class="cls-20" d="M331.94,85.35a1.62,1.62,0,1,1-1.62-1.62A1.63,1.63,0,0,1,331.94,85.35Z" transform="translate(-6.33)"/><path class="cls-21" d="M387.31,85.35a1.62,1.62,0,1,1-1.62-1.62A1.63,1.63,0,0,1,387.31,85.35Z" transform="translate(-6.33)"/><path class="cls-22" d="M170.1,85.35a1.62,1.62,0,1,1-1.62-1.62A1.62,1.62,0,0,1,170.1,85.35Z" transform="translate(-6.33)"/><path class="cls-23" d="M218.71,57.29a1.62,1.62,0,1,1-1.62-1.62A1.62,1.62,0,0,1,218.71,57.29Z" transform="translate(-6.33)"/><path class="cls-24" d="M186.3,57.29a1.62,1.62,0,1,1-1.61-1.62A1.61,1.61,0,0,1,186.3,57.29Z" transform="translate(-6.33)"/><path class="cls-25" d="M315.68,57.29a1.62,1.62,0,1,1-1.61-1.62A1.61,1.61,0,0,1,315.68,57.29Z" transform="translate(-6.33)"/><path class="cls-26" d="M331.94,29.22a1.62,1.62,0,1,1-1.62-1.62A1.62,1.62,0,0,1,331.94,29.22Z" transform="translate(-6.33)"/><path class="cls-27" d="M283.28,57.29a1.62,1.62,0,1,1-1.62-1.62A1.62,1.62,0,0,1,283.28,57.29Z" transform="translate(-6.33)"/><path class="cls-28" d="M267.46,141.47a1.62,1.62,0,1,1-1.62-1.62A1.62,1.62,0,0,1,267.46,141.47Z" transform="translate(-6.33)"/><path class="cls-29" d="M283.28,113.41a1.62,1.62,0,1,1-1.62-1.62A1.63,1.63,0,0,1,283.28,113.41Z" transform="translate(-6.33)"/><path class="cls-30" d="M315.68,113.41a1.62,1.62,0,1,1-1.61-1.62A1.62,1.62,0,0,1,315.68,113.41Z" transform="translate(-6.33)"/><path class="cls-31" d="M170.1,29.22a1.62,1.62,0,1,1-1.62-1.62A1.61,1.61,0,0,1,170.1,29.22Z" transform="translate(-6.33)"/><path class="cls-32" d="M186.3,1.62A1.62,1.62,0,1,1,184.69,0,1.62,1.62,0,0,1,186.3,1.62Z" transform="translate(-6.33)"/></g><g class="cls-11"><path class="cls-33" d="M421.05,200.78H395l-13-22.55,13-22.55h26l13,22.55Zm-25.45-1h24.86l12.42-21.53L420.46,156.7H395.6l-12.43,21.53Z" transform="translate(-6.33)"/></g><g class="cls-11"><polygon class="cls-34" points="300.05 222.76 274.31 222.76 261.29 200.2 274.16 177.91 275.05 178.42 262.47 200.2 274.9 221.73 300.05 221.73 300.05 222.76"/><path class="cls-35" d="M344.76,244.8h-26l-13-22.56,13-22.55h26l13,22.55Zm-25.45-1h24.86l12.43-21.53-12.43-21.52H319.31l-12.42,21.52Z" transform="translate(-6.33)"/><rect class="cls-36" x="350.32" y="242.58" width="1.03" height="25.45" transform="translate(-86.98 209.61) rotate(-30)"/><polygon class="cls-37" points="376.7 266.58 375.81 266.07 388.39 244.29 375.65 222.25 376.54 221.73 389.57 244.29 376.7 266.58"/><rect class="cls-38" x="376" y="210.84" width="25.75" height="1.03" transform="translate(4.85 442.1) rotate(-59.95)"/><rect class="cls-39" x="388.98" y="243.77" width="27.38" height="1.03"/></g><g class="cls-11"><path class="cls-40" d="M263.36,150.62l12.45,21.56-12.45,21.56H238.47L226,172.18l12.45-21.56Zm.65-1.11H237.83l-13.09,22.67,13.09,22.67H264l13.09-22.67L264,149.51Z" transform="translate(-6.33)"/></g><g class="cls-11"><path class="cls-41" d="M269.47,200.15a1.67,1.67,0,1,1-1.67-1.67A1.66,1.66,0,0,1,269.47,200.15Z" transform="translate(-6.33)"/></g><g class="cls-11"><path class="cls-42" d="M282.37,178.23a1.67,1.67,0,1,1-1.66-1.66A1.66,1.66,0,0,1,282.37,178.23Z" transform="translate(-6.33)"/></g><path class="cls-43" d="M321,200.15a1.67,1.67,0,1,1-1.66-1.67A1.66,1.66,0,0,1,321,200.15Z" transform="translate(-6.33)"/><path class="cls-44" d="M397,200.15a1.67,1.67,0,1,1-1.66-1.67A1.66,1.66,0,0,1,397,200.15Z" transform="translate(-6.33)"/><path class="cls-45" d="M358.86,266.93a1.67,1.67,0,1,1-1.67-1.67A1.67,1.67,0,0,1,358.86,266.93Z" transform="translate(-6.33)"/><path class="cls-46" d="M320.69,244.29a1.67,1.67,0,1,1-1.67-1.67A1.66,1.66,0,0,1,320.69,244.29Z" transform="translate(-6.33)"/><path class="cls-47" d="M422.7,244.29a1.67,1.67,0,1,1-1.67-1.67A1.66,1.66,0,0,1,422.7,244.29Z" transform="translate(-6.33)"/><path class="cls-48" d="M397,244.29a1.67,1.67,0,1,1-1.66-1.67A1.66,1.66,0,0,1,397,244.29Z" transform="translate(-6.33)"/><g class="cls-11"><path class="cls-49" d="M308.7,125.54l12.06,20.9L308.7,167.33H284.57l-12.06-20.89,12.06-20.9Zm.64-1.11H283.93l-12.71,22,12.71,22h25.41l12.7-22-12.7-22Z" transform="translate(-6.33)"/></g><g class="cls-11"><path class="cls-50" d="M211.48,120.17l12.07,20.89L211.48,162H187.36l-12.07-20.9,12.07-20.89Zm.65-1.11H186.72l-12.71,22,12.71,22h25.41l12.7-22-12.7-22Z" transform="translate(-6.33)"/></g><g class="cls-51"><path class="cls-52" d="M314.46,57.69H281.58L265.15,29.22,281.58.75h32.88l16.43,28.47Zm-32.3-1h31.72l15.87-27.48L313.88,1.75H282.16L266.29,29.22Z" transform="translate(-6.33)"/></g><g class="cls-51"><path class="cls-53" d="M214.93,225.25H182.05l-16.43-28.47,16.43-28.47h32.88l16.43,28.47Zm-32.3-1h31.72l15.87-27.48-15.87-27.47H182.63l-15.87,27.47Z" transform="translate(-6.33)"/></g><g class="cls-51"><path class="cls-54" d="M409.15,57.15H376.28L359.84,28.68,376.28.21h32.87l16.44,28.47Zm-32.3-1h31.73l15.86-27.47L408.58,1.2H376.85L361,28.68Z" transform="translate(-6.33)"/></g><path class="cls-55" d="M395,155.68l-.4.68-12.43,21.53H357.47L347.72,161l-2.46-4.26-.23-.4-.42-.73H317.86a1.67,1.67,0,0,0-3.27.45,1.67,1.67,0,0,0,3.23.58H344l12.44,21.54L344,199.69H319.16l-.07-.12v1.15h25.52l12.59-21.81h25.7l12.7-22.21Z" transform="translate(-6.33)"/><g class="cls-51"><path class="cls-56" d="M267.08,277.81H234.21l-16.44-28.46,16.44-28.47h32.87l16.44,28.47Zm-32.3-1h31.73l15.86-27.47-15.86-27.48H234.78l-15.86,27.48Z" transform="translate(-6.33)"/></g><path class="cls-57" d="M72,201.81a54.49,54.49,0,1,1,54.76-54.23A54.56,54.56,0,0,1,72,201.81ZM72.53,98.7a48.62,48.62,0,1,0,48.37,48.86A48.67,48.67,0,0,0,72.53,98.7Z" transform="translate(-6.33)"/><path class="cls-58" d="M72,213.27A66,66,0,0,1,6.33,147l5.06,0a60.9,60.9,0,1,0,61.2-60.6l0-5.06A66,66,0,0,1,72,213.27Z" transform="translate(-6.33)"/><path class="cls-59" d="M126.92,202.87l-3.56-3.6a72.75,72.75,0,0,0,.51-102.76L127.46,93A77.81,77.81,0,0,1,126.92,202.87Z" transform="translate(-6.33)"/><rect class="cls-60" x="161.19" y="127.33" width="0.51" height="27.39" transform="translate(13.3 301.77) rotate(-89.72)"/><rect class="cls-61" x="160.64" y="136.29" width="0.51" height="52.94" transform="translate(-9.02 322.81) rotate(-89.71)"/><rect class="cls-62" x="127.57" y="159.49" width="0.51" height="76.73" transform="translate(-76.99 324.71) rotate(-89.72)"/><path class="cls-63" d="M172.15,141.33a3,3,0,1,1,3,3A3,3,0,0,1,172.15,141.33Z" transform="translate(-6.33)"/><path class="cls-64" d="M184.37,162.48a3,3,0,1,1,3,3A3,3,0,0,1,184.37,162.48Z" transform="translate(-6.33)"/><path class="cls-65" d="M163.2,198a3,3,0,1,1,3,3A3,3,0,0,1,163.2,198Z" transform="translate(-6.33)"/><path class="cls-66" d="M71.24,128.57V151a7.9,7.9,0,0,1-7.9,7.9H44.91V120.67H63.34A7.91,7.91,0,0,1,71.24,128.57Zm-5.92,0a2,2,0,0,0-2-2H50.83v26.33H63.34a2,2,0,0,0,2-2Z" transform="translate(-6.33)"/><path class="cls-66" d="M94.93,133.84h5.93v18.69a7,7,0,0,1-7,7H81.51a7,7,0,0,1-7-7V133.84h5.92v18.69a1.07,1.07,0,0,0,1.06,1.06H93.88a1.06,1.06,0,0,0,1.05-1.06Z" transform="translate(-6.33)"/><path class="cls-66" d="M50.84,169.45h-3.5l-.6,1.7H45.32l3-8.35h1.59l3,8.35H51.44Zm-.39-1.12-1.35-3.87-1.37,3.87Z" transform="translate(-6.33)"/><path class="cls-66" d="M55.54,162.27v8.88H54.17v-8.88Z" transform="translate(-6.33)"/><path class="cls-66" d="M58.71,162.27v8.88H57.34v-8.88Z" transform="translate(-6.33)"/><path class="cls-66" d="M63.7,163.41a.89.89,0,0,1,0-1.24.88.88,0,1,1,0,1.24Zm1.3,1.13v6.61H63.63v-6.61Z" transform="translate(-6.33)"/><path class="cls-66" d="M71.53,164.76a2.3,2.3,0,0,1,1,1,3.15,3.15,0,0,1,.34,1.53v3.9H71.49v-3.69A1.89,1.89,0,0,0,71,166.1a1.56,1.56,0,0,0-1.21-.48,1.6,1.6,0,0,0-1.22.48,1.89,1.89,0,0,0-.45,1.36v3.69H66.8v-6.61h1.36v.76a2.31,2.31,0,0,1,.86-.64,2.79,2.79,0,0,1,1.11-.23A2.92,2.92,0,0,1,71.53,164.76Z" transform="translate(-6.33)"/><path class="cls-66" d="M79.37,170.69a4,4,0,0,1-1.55-1.52,4.31,4.31,0,0,1-.57-2.21,4.26,4.26,0,0,1,.57-2.19,4,4,0,0,1,1.55-1.52,4.53,4.53,0,0,1,4.29,0,4,4,0,0,1,1.54,1.52,4.26,4.26,0,0,1,.57,2.19,4.31,4.31,0,0,1-.57,2.21,4,4,0,0,1-1.54,1.52,4.46,4.46,0,0,1-4.29,0Zm3.61-1a2.6,2.6,0,0,0,1-1.08,3.53,3.53,0,0,0,.36-1.63,3.44,3.44,0,0,0-.36-1.61,2.57,2.57,0,0,0-1-1.07,2.87,2.87,0,0,0-1.47-.37,2.9,2.9,0,0,0-1.48.37,2.55,2.55,0,0,0-1,1.07,3.33,3.33,0,0,0-.37,1.61,3.41,3.41,0,0,0,.37,1.63,2.58,2.58,0,0,0,1,1.08,2.91,2.91,0,0,0,1.48.38A2.87,2.87,0,0,0,83,169.67Z" transform="translate(-6.33)"/><path class="cls-66" d="M91.85,164.76a2.22,2.22,0,0,1,1,1,3.15,3.15,0,0,1,.35,1.53v3.9H91.8v-3.69a1.89,1.89,0,0,0-.44-1.36,1.57,1.57,0,0,0-1.21-.48,1.6,1.6,0,0,0-1.22.48,1.89,1.89,0,0,0-.45,1.36v3.69H87.11v-6.61h1.37v.76a2.23,2.23,0,0,1,.86-.64,2.79,2.79,0,0,1,1.11-.23A3,3,0,0,1,91.85,164.76Z" transform="translate(-6.33)"/><path class="cls-66" d="M100.91,168.36h-5a1.83,1.83,0,0,0,1.88,1.75,1.6,1.6,0,0,0,1.56-.92h1.48a3,3,0,0,1-1.09,1.49,3.16,3.16,0,0,1-2,.58,3.39,3.39,0,0,1-1.69-.42,3.09,3.09,0,0,1-1.18-1.2,3.74,3.74,0,0,1-.43-1.8,3.67,3.67,0,0,1,.42-1.79,2.86,2.86,0,0,1,1.16-1.2,3.48,3.48,0,0,1,1.72-.42,3.39,3.39,0,0,1,1.67.41,2.87,2.87,0,0,1,1.14,1.15,3.45,3.45,0,0,1,.41,1.7A4.57,4.57,0,0,1,100.91,168.36Zm-1.38-1.11A1.58,1.58,0,0,0,99,166a2,2,0,0,0-1.31-.45,1.76,1.76,0,0,0-1.21.45,1.92,1.92,0,0,0-.6,1.21Z" transform="translate(-6.33)"/><path class="cls-66" d="M47.05,180.94a2.4,2.4,0,0,1-1.06-.83,2.1,2.1,0,0,1-.39-1.26h1.47a1.32,1.32,0,0,0,.42.89,1.55,1.55,0,0,0,1.07.35,1.61,1.61,0,0,0,1.1-.35,1.11,1.11,0,0,0,.4-.88,1,1,0,0,0-.25-.68,1.64,1.64,0,0,0-.61-.41,8.16,8.16,0,0,0-1-.31,10.11,10.11,0,0,1-1.32-.44,2.23,2.23,0,0,1-.87-.69,2,2,0,0,1-.36-1.25,2.22,2.22,0,0,1,.36-1.26,2.32,2.32,0,0,1,1-.83,3.68,3.68,0,0,1,1.5-.28,3.13,3.13,0,0,1,2,.6,2.25,2.25,0,0,1,.86,1.66H49.83a1.15,1.15,0,0,0-.43-.78,1.66,1.66,0,0,0-1-.32,1.49,1.49,0,0,0-1,.3A1,1,0,0,0,47,175a.89.89,0,0,0,.23.63,1.56,1.56,0,0,0,.6.39c.24.1.57.2,1,.32a10.58,10.58,0,0,1,1.35.45,2.24,2.24,0,0,1,.89.7,2.06,2.06,0,0,1,.37,1.27,2.29,2.29,0,0,1-.35,1.2,2.43,2.43,0,0,1-1,.91,3.39,3.39,0,0,1-1.54.34A3.63,3.63,0,0,1,47.05,180.94Z" transform="translate(-6.33)"/><path class="cls-66" d="M55.31,180.84a3.19,3.19,0,0,1-1.19-1.2,3.74,3.74,0,0,1-.43-1.8,3.53,3.53,0,0,1,.45-1.79,3,3,0,0,1,1.21-1.2,3.71,3.71,0,0,1,3.43,0,3,3,0,0,1,1.21,1.2,3.75,3.75,0,0,1,0,3.58,3.2,3.2,0,0,1-1.24,1.21,3.64,3.64,0,0,1-1.74.42A3.44,3.44,0,0,1,55.31,180.84Zm2.68-1a1.93,1.93,0,0,0,.75-.75,2.38,2.38,0,0,0,.29-1.23,2.56,2.56,0,0,0-.27-1.22,1.91,1.91,0,0,0-.74-.75,2,2,0,0,0-2,0,1.78,1.78,0,0,0-.71.75,2.56,2.56,0,0,0-.27,1.22,2.35,2.35,0,0,0,.55,1.65,1.78,1.78,0,0,0,1.37.58A2,2,0,0,0,58,179.82Z" transform="translate(-6.33)"/><path class="cls-66" d="M64.24,172.27v8.88H62.87v-8.88Z" transform="translate(-6.33)"/><path class="cls-66" d="M73.11,174.54v6.61H71.74v-.78a2.22,2.22,0,0,1-.85.65,2.72,2.72,0,0,1-1.11.23,3,3,0,0,1-1.39-.32,2.35,2.35,0,0,1-1-1,3.15,3.15,0,0,1-.35-1.53v-3.89h1.36v3.69a1.9,1.9,0,0,0,.44,1.36,1.6,1.6,0,0,0,1.21.47,1.63,1.63,0,0,0,1.22-.47,1.91,1.91,0,0,0,.45-1.36v-3.69Z" transform="translate(-6.33)"/><path class="cls-66" d="M77.58,175.66v3.66a.68.68,0,0,0,.18.53.83.83,0,0,0,.59.16h.84v1.14H78.11a2.05,2.05,0,0,1-1.41-.43,1.78,1.78,0,0,1-.5-1.4v-3.66h-.78v-1.12h.78V172.9h1.38v1.64h1.61v1.12Z" transform="translate(-6.33)"/><path class="cls-66" d="M81.6,173.41a.88.88,0,0,1,.63-1.5.83.83,0,0,1,.61.26.89.89,0,0,1,0,1.24.83.83,0,0,1-.61.26A.86.86,0,0,1,81.6,173.41Zm1.3,1.13v6.61H81.53v-6.61Z" transform="translate(-6.33)"/><path class="cls-66" d="M87,180.84a3.12,3.12,0,0,1-1.19-1.2,3.63,3.63,0,0,1-.43-1.8,3.52,3.52,0,0,1,.44-1.79,3.1,3.1,0,0,1,1.21-1.2,3.53,3.53,0,0,1,1.72-.42,3.49,3.49,0,0,1,1.71.42,3.06,3.06,0,0,1,1.22,1.2,3.62,3.62,0,0,1,.44,1.79,3.43,3.43,0,0,1-.46,1.79,3.14,3.14,0,0,1-1.24,1.21,3.6,3.6,0,0,1-1.73.42A3.39,3.39,0,0,1,87,180.84Zm2.68-1a1.93,1.93,0,0,0,.75-.75,2.49,2.49,0,0,0,.29-1.23,2.56,2.56,0,0,0-.28-1.22,1.88,1.88,0,0,0-.73-.75,2.11,2.11,0,0,0-1-.25,2,2,0,0,0-1,.25,1.86,1.86,0,0,0-.72.75,2.68,2.68,0,0,0-.26,1.22,2.34,2.34,0,0,0,.54,1.65,1.82,1.82,0,0,0,1.38.58A2,2,0,0,0,89.64,179.82Z" transform="translate(-6.33)"/><path class="cls-66" d="M99.25,174.76a2.3,2.3,0,0,1,1,1,3.15,3.15,0,0,1,.34,1.53v3.9H99.21v-3.69a1.89,1.89,0,0,0-.45-1.36,1.56,1.56,0,0,0-1.21-.48,1.6,1.6,0,0,0-1.22.48,1.89,1.89,0,0,0-.45,1.36v3.69H94.52v-6.61h1.36v.76a2.31,2.31,0,0,1,.86-.64,2.79,2.79,0,0,1,1.11-.23A2.92,2.92,0,0,1,99.25,174.76Z" transform="translate(-6.33)"/><image width="760" height="462" transform="translate(150.25 93.76) scale(0.24)" xlink:href="../../../../../Image%20Ssets/pngfind.com-biometric-devices-png-5431029.png"/><image width="1513" height="603" transform="translate(224.75 8.29) scale(0.13)" xlink:href="../../../../../Image%20Ssets/pngegg.png"/><image width="1000" height="1000" transform="translate(343.78 88.15) scale(0.09)" xlink:href="../../../../../Image%20Ssets/modem.png"/></g></g></g></svg>